<svg xmlns="http://www.w3.org/2000/svg" aria-hidden="true" overflow="hidden" style="position:absolute;width:0;height:0">
  <defs>
    <symbol id="icon-arrow-down-1-1" viewBox="0 0 32 32">
      <path fill="var(--color1, #fff)" d="M24.799 15.917c0 .559-.213 1.117-.639 1.543l-13.4 13.4a2.184 2.184 0 0 1-3.087-3.086l11.858-11.857L7.674 4.06A2.182 2.182 0 1 1 10.761.974l13.4 13.4c.426.426.638.984.638 1.543z"/>
    </symbol>
    <symbol id="icon-arrow-down" viewBox="0 0 32 32">
      <path fill="var(--color1, #fff)" d="M7.201 16.083c0-.559.213-1.117.639-1.543l13.4-13.4a2.184 2.184 0 0 1 3.087 3.086L12.47 16.083 24.327 27.94a2.182 2.182 0 1 1-3.087 3.086l-13.4-13.4a2.173 2.173 0 0 1-.638-1.543z"/>
    </symbol>
    <symbol id="icon-talented-unfill" viewBox="0 0 32 32">
      <path fill="var(--color1, #fff)" d="M19.169 18.462a9.964 9.964 0 0 0-2.672-12.959 4.885 4.885 0 0 0-2.456-4.198A6.115 6.115 0 0 0 11.009.5h-1.02a6.115 6.115 0 0 0-3.032.805 4.895 4.895 0 0 0-2.456 4.2 9.993 9.993 0 0 0 2.618 17.402l-.91 1.593h-4.21a1.503 1.503 0 0 0-1.5 1.5v4a1.503 1.503 0 0 0 1.5 1.5h13a1.503 1.503 0 0 0 1.5-1.5v-4a1.503 1.503 0 0 0-1.5-1.5h-4.21l-.577-1.009c.096.003.191.009.287.009a9.914 9.914 0 0 0 4.962-1.331l8.563 8.563a2.623 2.623 0 0 0 3.708-3.707l-8.563-8.563zM7.454 2.174a5.115 5.115 0 0 1 2.536-.673h1.02c.889 0 1.764.233 2.536.673A3.858 3.858 0 0 1 15 7.431V6.91a3.488 3.488 0 0 0-.588-1.942l-.496-.745a.5.5 0 0 0-.717-.123l-.667.5a4.525 4.525 0 0 1-2.7.9H8.499a2.504 2.504 0 0 0-2.45 2.009 3.854 3.854 0 0 1 1.404-5.336zM8.5 13.025v1.55l-.803.134a4.673 4.673 0 0 0-2.6 1.381 5.962 5.962 0 0 1 .934-6.587 4.507 4.507 0 0 0 2.47 3.522zm1 .359a4.36 4.36 0 0 0 2 0v1.331a2.2 2.2 0 0 1-2 0v-1.331zm1-.884A3.504 3.504 0 0 1 7 9V8a1.503 1.503 0 0 1 1.5-1.5h1.333a5.535 5.535 0 0 0 3.3-1.1l.243-.183.203.304c.275.41.421.893.42 1.387v2.091a3.504 3.504 0 0 1-3.5 3.5zm-2.64 3.197 1.05-.175a3.132 3.132 0 0 0 3.18 0l1.05.175a3.68 3.68 0 0 1 2.231 1.293 5.976 5.976 0 0 1-4.871 2.509c-.953 0-1.892-.228-2.74-.664s-1.578-1.069-2.131-1.845a3.678 3.678 0 0 1 2.23-1.293zm8.043.394a4.673 4.673 0 0 0-2.6-1.381l-.803-.134v-1.55a4.505 4.505 0 0 0 2.47-3.522 5.957 5.957 0 0 1 .933 6.588v-.002zM15 25.5a.498.498 0 0 1 .5.5v4a.498.498 0 0 1-.5.5H2a.498.498 0 0 1-.5-.5v-4a.498.498 0 0 1 .5-.5h4.5a.505.505 0 0 0 .434-.25L8.5 22.508l1.566 2.74a.497.497 0 0 0 .434.252H15zm-5.38-3.047-.686-1.2a.528.528 0 0 0-.68-.171.532.532 0 0 0-.188.171l-.441.771A8.99 8.99 0 0 1 4.636 6.677c.155.648.441 1.257.839 1.79l.074.1a6.999 6.999 0 1 0 9.898 0l.074-.1a4.911 4.911 0 0 0 .839-1.79 8.992 8.992 0 0 1 2.576 9.952 9.004 9.004 0 0 1-8.438 5.871c-.294 0-.588-.019-.88-.047zM25.879 30.5a1.614 1.614 0 0 1-1.147-.475l-8.411-8.411a10.06 10.06 0 0 0 2.293-2.293l8.411 8.41a1.626 1.626 0 0 1 .352 1.767 1.627 1.627 0 0 1-1.498 1.002zM22.438 6.646l-.919 3.217a.497.497 0 0 0 .51.635.497.497 0 0 0 .29-.114L25 8.15l2.679 2.233a.5.5 0 0 0 .799-.521l-.919-3.217 2.292-2.292a.505.505 0 0 0 .108-.543.501.501 0 0 0-.459-.309h-2.691L25.45.777a.514.514 0 0 0-.447-.254.515.515 0 0 0-.447.254l-1.364 2.724h-2.691a.5.5 0 0 0-.353.853l2.292 2.292zM23.5 4.5a.501.501 0 0 0 .45-.276L25 2.118l1.052 2.106a.505.505 0 0 0 .447.277h1.793l-1.647 1.647a.497.497 0 0 0-.127.491l.554 1.94-1.75-1.461a.5.5 0 0 0-.64 0l-1.753 1.461.554-1.939a.5.5 0 0 0-.128-.491l-1.648-1.646H23.5z"/>
      <path fill="var(--color1, #fff)" d="M31.462 13.808A.498.498 0 0 0 31 13.5h-2.691l-1.359-2.724a.521.521 0 0 0-.894 0L24.692 13.5h-2.691a.5.5 0 0 0-.353.853l2.292 2.292-.919 3.217a.497.497 0 0 0 .51.635.497.497 0 0 0 .29-.114l2.681-2.234 2.679 2.233a.5.5 0 0 0 .799-.521l-.919-3.218 2.292-2.292a.504.504 0 0 0 .111-.544zm-3.315 2.338a.508.508 0 0 0-.128.491l.554 1.94-1.75-1.461a.5.5 0 0 0-.64 0l-1.754 1.461.554-1.94a.5.5 0 0 0-.128-.491L23.206 14.5h1.793a.506.506 0 0 0 .45-.277l1.05-2.105 1.052 2.105a.505.505 0 0 0 .447.277h1.793l-1.646 1.646zM14.5 28.5h-12v1h12v-1zm-1-2h-10v1h10v-1z"/>
    </symbol>
    <symbol id="icon-avialable-unfill-1" viewBox="0 0 32 32">
      <path fill="var(--color1, #fff)" d="m13.602 20.405-6.074-6.001a2.082 2.082 0 0 0-1.482-.614c-.385 0-.753.103-1.075.296V6.862c0-.369-.096-.715-.264-1.017a1.076 1.076 0 0 1 1.422 1.017v5.309a.511.511 0 0 0 1.022 0V6.862a2.098 2.098 0 0 0-3.186-1.79A2.098 2.098 0 0 0 .78 6.863l.009 10.069c0 .451.167 1.088.389 1.481l.011.019 6.289 10.152c.133.242.252.702.252.973v1.924a.511.511 0 0 0 1.022 0v-1.924a3.47 3.47 0 0 0-.388-1.482l-.011-.019-6.29-10.152a2.52 2.52 0 0 1-.253-.973L1.801 6.863a1.076 1.076 0 0 1 2.15 0v9.025l.002.038c.009.524.213 1.046.612 1.445l4.879 4.879a.511.511 0 0 0 .722-.722l-4.879-4.879c-.203-.203-.315-.473-.315-.76s.112-.557.315-.76.473-.315.76-.315c.287 0 .557.112.762.317l6.074 6.001c.675.676 1.246 2.053 1.246 3.009v7.351a.511.511 0 0 0 1.022 0v-7.351c0-1.225-.679-2.864-1.547-3.733zM29.126 4.766c-.398 0-.771.112-1.089.306a2.098 2.098 0 0 0-3.186 1.79v5.309a.511.511 0 0 0 1.022 0V6.862a1.076 1.076 0 0 1 1.422-1.017 2.081 2.081 0 0 0-.264 1.017v7.224a2.081 2.081 0 0 0-1.075-.296 2.08 2.08 0 0 0-1.48.612l-6.079 6.005c-.866.866-1.545 2.505-1.545 3.731v7.352a.511.511 0 0 0 1.022 0v-7.351c0-.955.571-2.333 1.244-3.006l6.079-6.005c.203-.203.473-.315.76-.315s.557.112.76.315c.203.203.315.473.315.76s-.112.557-.315.76l-4.879 4.879a.511.511 0 0 0 .722.722l4.879-4.879a2.087 2.087 0 0 0 .614-1.483V6.863a1.076 1.076 0 0 1 2.15-.001l-.009 10.069c0 .271-.12.731-.253.973l-6.289 10.152-.011.019a3.463 3.463 0 0 0-.388 1.482v1.924a.511.511 0 0 0 1.022 0v-1.924c0-.271.12-.731.252-.973l6.289-10.152.011-.019c.221-.393.388-1.03.389-1.481l.009-10.069c0-1.156-.94-2.096-2.096-2.096z"/>
      <path fill="var(--color1, #fff)" d="M23.319 3.745a.511.511 0 0 0 .511-.511V.511A.511.511 0 0 0 23.319 0H8.681a.511.511 0 0 0-.511.511v2.723c0 .282.229.511.511.511h.17v1.021h-.17a.511.511 0 0 0-.511.511v2.724c0 .282.229.511.511.511h.17v1.021h-.17a.511.511 0 0 0-.511.511v2.723c0 .282.229.511.511.511h14.638a.511.511 0 0 0 .511-.511v-2.723a.511.511 0 0 0-.511-.511h-.17V8.512h.17a.511.511 0 0 0 .511-.511V5.278a.511.511 0 0 0-.511-.511h-.17V3.746h.17zm-.51 8.51H9.192v-1.702h13.617v1.702zm0-4.766h-2.213a.511.511 0 0 0 0 1.022h1.532v1.021H9.873V8.511h8.681a.511.511 0 0 0 0-1.022H9.192V5.787h13.617v1.702zM9.872 4.766V3.745h12.255v1.021H9.872zm12.937-2.043H9.192V1.021h13.617v1.702z"/>
    </symbol>
    <symbol id="icon-7-1" viewBox="0 0 32 32">
      <path fill="var(--color1, #fff)" d="M28.586 6.121h.989a.625.625 0 0 0 0-1.25h-2.373a.625.625 0 0 0-.625.625v2.373a.625.625 0 0 0 1.25 0v-.687a14.704 14.704 0 0 1 2.925 8.817c0 8.134-6.617 14.751-14.751 14.751S1.25 24.133 1.25 15.999 7.867 1.248 16.001 1.248c.602 0 1.207.037 1.8.109a.624.624 0 1 0 .15-1.24 16.24 16.24 0 0 0-1.95-.118c-4.274 0-8.292 1.664-11.314 4.686S.001 11.725.001 15.999s1.664 8.292 4.686 11.314c3.022 3.022 7.04 4.686 11.314 4.686s8.292-1.664 11.314-4.686a15.895 15.895 0 0 0 4.686-11.314 15.95 15.95 0 0 0-3.414-9.879z"/>
      <path fill="var(--color1, #fff)" d="M6.775 9.432a.624.624 0 0 0-.862.194 11.972 11.972 0 0 0-1.777 7.626 11.96 11.96 0 0 0 3.429 7.184c2.326 2.326 5.381 3.488 8.436 3.488s6.11-1.163 8.436-3.488c4.651-4.651 4.651-12.22 0-16.871a11.957 11.957 0 0 0-7.172-3.427 11.974 11.974 0 0 0-7.617 1.763.624.624 0 1 0 .666 1.056c4.243-2.675 9.688-2.062 13.24 1.491 4.164 4.164 4.164 10.94 0 15.104s-10.94 4.164-15.104 0c-3.503-3.503-4.125-9.079-1.479-13.258a.625.625 0 0 0-.194-.862z"/>
      <path fill="var(--color1, #fff)" d="M24.12 16.635h.77a.625.625 0 0 0 0-1.25h-.77a.625.625 0 0 0 0 1.25zM6.485 15.99c0 .345.28.625.625.625h.77a.625.625 0 0 0 0-1.25h-.77a.625.625 0 0 0-.625.625zm10.15-8.11v-.77a.625.625 0 0 0-1.25 0v.77a.625.625 0 0 0 1.25 0zm-1.27 16.24v.77a.625.625 0 0 0 1.25 0v-.77a.625.625 0 0 0-1.25 0zm-2.496-12.134a.624.624 0 1 0-.883.883l2.117 2.117a2.154 2.154 0 0 0 1.898 3.166 2.154 2.154 0 0 0 1.898-3.166l4.271-4.271a.624.624 0 1 0-.883-.883l-4.271 4.271c-.302-.162-.647-.254-1.014-.254s-.712.092-1.014.254l-2.117-2.117zM16.903 16a.904.904 0 0 1-1.806 0 .903.903 0 0 1 1.806 0zM8.447 8.447a.626.626 0 0 0 0-.884.63.63 0 0 0-.884 0 .63.63 0 0 0 0 .884.63.63 0 0 0 .884 0zm11.88-6.581a.625.625 0 1 0 0-1.25.625.625 0 0 0 0 1.25z"/>
    </symbol>
    <symbol id="icon-molekula" viewBox="0 0 32 32">
      <path fill="var(--color1, #fff)" d="M28.509 0a3.495 3.495 0 0 0-3.069 5.155l-5.719 5.719a4.62 4.62 0 0 0-5.699-.001L9.56 6.411c.205-.346.33-.744.33-1.175 0-1.284-1.044-2.327-2.327-2.327S5.236 3.953 5.236 5.236a2.33 2.33 0 0 0 2.327 2.327c.431 0 .829-.125 1.175-.33l4.462 4.462a4.63 4.63 0 0 0 0 5.699l-7.368 7.369a3.472 3.472 0 0 0-2.341-.909C1.566 23.854 0 25.42 0 27.345s1.566 3.491 3.491 3.491a3.495 3.495 0 0 0 3.069-5.155l7.464-7.464c.643.5 1.42.835 2.268.942v5.911a3.494 3.494 0 0 0-2.909 3.439c0 1.925 1.566 3.491 3.491 3.491s3.491-1.566 3.491-3.491a3.495 3.495 0 0 0-2.909-3.439v-5.911a4.639 4.639 0 0 0 2.268-.942l4.462 4.462a2.3 2.3 0 0 0-.33 1.175c0 1.283 1.044 2.327 2.327 2.327s2.327-1.044 2.327-2.327a2.33 2.33 0 0 0-2.327-2.327 2.3 2.3 0 0 0-1.175.33l-4.462-4.462a4.63 4.63 0 0 0 0-5.699l5.623-5.623a3.47 3.47 0 0 0 2.341.909c1.925 0 3.491-1.566 3.491-3.491S30.435 0 28.51 0zM6.4 5.236a1.165 1.165 0 0 1 2.328 0 1.165 1.165 0 0 1-2.328 0zM3.491 29.673c-1.284 0-2.327-1.044-2.327-2.327s1.044-2.327 2.327-2.327 2.327 1.044 2.327 2.327a2.33 2.33 0 0 1-2.327 2.327zM19.2 28.509c0 1.284-1.044 2.327-2.327 2.327s-2.327-1.044-2.327-2.327 1.044-2.327 2.327-2.327 2.327 1.044 2.327 2.327zm-2.327-10.473c-1.925 0-3.491-1.566-3.491-3.491s1.566-3.491 3.491-3.491 3.491 1.566 3.491 3.491-1.566 3.491-3.491 3.491zm10.472 5.819a1.165 1.165 0 0 1-2.328 0 1.165 1.165 0 0 1 2.328 0zm1.164-18.037c-1.283 0-2.327-1.044-2.327-2.327s1.044-2.327 2.327-2.327c1.284 0 2.327 1.044 2.327 2.327s-1.044 2.327-2.327 2.327z"/>
    </symbol>
    <symbol id="icon-arrow-right-length-1-1" viewBox="0 0 55 32">
      <path d="m40.388.993-2.391 2.391 10.641 10.641H1.429v3.382h47.209L37.997 28.048l2.391 2.391 14.723-14.723L40.388.993z"/>
    </symbol>
    <symbol id="icon-arrow-right-length" viewBox="0 0 55 32">
      <path d="m14.722 30.439 2.391-2.391L6.472 17.407h47.209v-3.382H6.472L17.113 3.384 14.722.993-.001 15.716l14.723 14.723z"/>
    </symbol>
    <symbol id="icon-close" viewBox="0 0 32 32">
      <path fill="var(--color1, #fff)" d="M19.524 16 31.488 4.035c.329-.329.511-.769.511-1.237s-.182-.909-.511-1.238L30.44.512c-.33-.33-.769-.511-1.238-.511s-.908.181-1.237.511L16.001 12.476 4.036.512C3.707.182 3.267.001 2.798.001S1.89.182 1.561.512L.512 1.56a1.75 1.75 0 0 0 0 2.475L12.477 16 .512 27.964c-.329.33-.511.769-.511 1.238s.181.908.511 1.238l1.049 1.048c.329.33.769.511 1.237.511s.909-.181 1.238-.511l11.965-11.964 11.964 11.964c.33.33.769.511 1.237.511.469 0 .908-.181 1.238-.511l1.049-1.048c.329-.329.511-.769.511-1.238s-.182-.908-.511-1.237L19.525 16z"/>
    </symbol>
    <symbol id="icon-hamburger-1" viewBox="0 0 32 32">
      <path fill="var(--color2, #5eb8f0)" d="M32 16c0 8.837-7.163 16-16 16S0 24.837 0 16 7.163 0 16 0s16 7.163 16 16z"/>
      <path fill="var(--color1, #fff)" d="M21.627 10.293h-12a.667.667 0 0 1 0-1.334h12a.667.667 0 0 1 0 1.334zm0 6h-12a.667.667 0 0 1 0-1.334h12a.667.667 0 0 1 0 1.334zm0 6h-12a.667.667 0 0 1 0-1.334h12a.667.667 0 0 1 0 1.334z"/>
    </symbol>
    <symbol id="icon-vk" viewBox="0 0 32 32">
      <path fill="var(--color1, #fff)" d="M16.193 26c4.629 0 2.979-2.931 3.336-3.773-.005-.629-.011-1.235.011-1.603.293.083.985.433 2.415 1.823C24.162 24.674 24.726 26 26.508 26h3.281c1.04 0 1.581-.431 1.852-.792.261-.349.517-.963.237-1.917-.732-2.299-5.001-6.268-5.267-6.687.04-.077.104-.18.137-.233h-.003c.843-1.113 4.059-5.932 4.532-7.86.001-.003.003-.007.003-.011.256-.88.021-1.451-.221-1.773-.365-.483-.947-.727-1.732-.727h-3.281c-1.099 0-1.932.553-2.353 1.563-.705 1.793-2.687 5.481-4.172 6.787a85.983 85.983 0 0 1 .009-4.311C19.578 7.992 19.733 6 17.609 6h-5.157c-1.331 0-2.604 1.453-1.225 3.179 1.205 1.512.433 2.355.693 6.549-1.013-1.087-2.816-4.021-4.091-7.772-.357-1.015-.899-1.955-2.423-1.955H2.125C.794 6.001 0 6.726 0 7.941 0 10.669 6.039 26 16.193 26zM5.407 8.001c.289 0 .319 0 .533.609 1.305 3.844 4.233 9.532 6.372 9.532 1.607 0 1.607-1.647 1.607-2.267l-.001-4.936c-.088-1.633-.683-2.447-1.073-2.94l4.677.005c.003.023-.027 5.46.013 6.777 0 1.871 1.485 2.943 3.804.596 2.447-2.761 4.139-6.889 4.207-7.057.1-.24.187-.321.501-.321h3.295l-.003.012c-.3 1.4-3.261 5.861-4.252 7.247a.783.783 0 0 0-.045.067c-.436.712-.791 1.499.06 2.605h.001c.077.093.279.312.572.616.912.941 4.04 4.16 4.317 5.44-.184.029-.384.008-3.484.015-.66 0-1.176-.987-3.145-2.973-1.771-1.723-2.92-2.427-3.967-2.427-2.032 0-1.884 1.649-1.865 3.644.007 2.163-.007 1.479.008 1.615-.119.047-.459.14-1.345.14C7.734 24 2.225 10.572 2.013 8.005c.073-.007 1.083-.003 3.395-.004z"/>
    </symbol>
    <symbol id="icon-instagram" viewBox="0 0 32 32">
      <path fill="var(--color1, #fff)" d="M31.969 9.408c-.075-1.7-.35-2.869-.744-3.882a7.816 7.816 0 0 0-1.85-2.838A7.867 7.867 0 0 0 26.543.844C25.524.45 24.361.175 22.661.1 20.948.019 20.404 0 16.06 0s-4.888.019-6.595.094c-1.7.075-2.869.35-3.882.744a7.803 7.803 0 0 0-2.838 1.85A7.867 7.867 0 0 0 .901 5.52C.507 6.539.232 7.702.157 9.402c-.081 1.713-.1 2.257-.1 6.601s.019 4.888.094 6.595c.075 1.7.35 2.869.744 3.882a7.895 7.895 0 0 0 1.85 2.838 7.867 7.867 0 0 0 2.832 1.844c1.019.394 2.182.669 3.882.744 1.706.075 2.25.094 6.595.094s4.888-.018 6.595-.094c1.7-.075 2.869-.35 3.882-.744a8.181 8.181 0 0 0 4.682-4.682c.394-1.019.669-2.182.744-3.882.075-1.707.094-2.25.094-6.595s-.006-4.888-.081-6.595zm-2.882 13.065c-.069 1.563-.331 2.407-.55 2.969a5.31 5.31 0 0 1-3.038 3.038c-.563.219-1.413.481-2.969.55-1.688.075-2.194.094-6.464.094s-4.782-.019-6.464-.094c-1.563-.069-2.407-.331-2.969-.55a4.926 4.926 0 0 1-1.838-1.194 4.974 4.974 0 0 1-1.194-1.838c-.219-.563-.481-1.413-.55-2.969-.075-1.688-.094-2.194-.094-6.464s.019-4.782.094-6.464c.069-1.563.331-2.407.55-2.969a4.868 4.868 0 0 1 1.2-1.838A4.974 4.974 0 0 1 6.639 3.55c.563-.219 1.413-.481 2.969-.55 1.688-.075 2.194-.094 6.464-.094 4.276 0 4.782.019 6.464.094 1.563.069 2.407.331 2.969.55a4.914 4.914 0 0 1 1.838 1.194 4.974 4.974 0 0 1 1.194 1.838c.219.563.481 1.413.55 2.969.075 1.688.094 2.194.094 6.464s-.019 4.77-.094 6.458z"/>
      <path fill="var(--color1, #fff)" d="M16.059 7.783c-4.538 0-8.22 3.682-8.22 8.22s3.682 8.22 8.22 8.22 8.22-3.682 8.22-8.22-3.682-8.22-8.22-8.22zm0 13.552a5.333 5.333 0 0 1 0-10.664 5.333 5.333 0 0 1 0 10.664zM26.524 7.458a1.919 1.919 0 1 1-3.838 0 1.919 1.919 0 0 1 3.838 0z"/>
    </symbol>
    <symbol id="icon-twitter" viewBox="0 0 32 32">
      <path fill="var(--color1, #fff)" d="M31.859 6.846a.954.954 0 0 0-.896-.451l-1.596.139 1.525-3.075a.954.954 0 0 0-1.274-1.281l-4.037 1.977c-2.494-1.317-5.61-.926-7.754 1.027-1.789 1.63-2.73 4.137-2.554 6.636-4.677-.469-8.636-3.146-10.976-7.471a.953.953 0 0 0-1.606-.114c-1.452 1.961-1.554 4.651-.416 6.863a14.616 14.616 0 0 1-1.018-.31.953.953 0 0 0-1.244 1.06c.45 2.73 2.043 4.829 4.558 6.071a8.034 8.034 0 0 1-1.002.278.952.952 0 0 0-.502 1.586c1.811 1.936 4.428 2.889 6.286 3.346-2.113 1.655-4.394 1.932-7.709 1.818a.954.954 0 0 0-.739 1.595c1.382 1.523 6.416 3.24 11.708 3.369.209.005.423.008.641.008 3.716 0 8.626-.797 12.151-4.321 2.668-2.668 4.337-5.739 4.96-9.128.503-2.737.185-4.929.032-5.983l-.033-.232 1.493-2.406a.956.956 0 0 0 .002-1.003zm-3.351 3.914c.283 1.951 1.145 7.89-4.453 13.488-3.254 3.254-7.993 3.838-11.396 3.755-2.904-.071-5.501-.626-7.384-1.259a11.81 11.81 0 0 0 2.088-.438c1.772-.551 3.27-1.542 4.712-3.12a.953.953 0 0 0-.583-1.59c-.91-.116-3.644-.577-5.797-2.062.62-.254 1.219-.571 1.79-.95a.955.955 0 0 0-.285-1.719c-1.762-.462-3.889-1.496-4.87-3.803.626.11 1.307.136 2.033-.027a.953.953 0 0 0 .477-1.594c-1.22-1.264-1.677-3.085-1.285-4.644 1.282 1.874 2.906 3.451 4.767 4.617 2.381 1.492 5.159 2.316 8.036 2.384a.954.954 0 0 0 .954-1.161c-.495-2.225.211-4.596 1.798-6.042 1.646-1.5 4.079-1.727 5.917-.553.28.179.634.199.934.053l1.971-.966-1.032 2.08a.954.954 0 0 0 .938 1.375l1.39-.121-.64 1.032c-.215.346-.17.654-.081 1.266z"/>
    </symbol>
    <symbol id="icon-envelope-unfill-1" viewBox="0 0 42 32">
      <path fill="var(--color1, #fff)" d="M38.062 1H3.937C1.766 1-.001 2.682-.001 4.75v22.5c0 2.068 1.766 3.75 3.938 3.75h34.125C40.233 31 42 29.318 42 27.25V4.75C42 2.682 40.234 1 38.062 1zm0 2.5c.178 0 .348.035.503.097L20.999 18.096 3.433 3.597c.155-.061.325-.097.503-.097h34.125zm0 25H3.937c-.724 0-1.313-.56-1.313-1.25V6.238l17.515 14.457c.247.204.554.305.86.305s.613-.101.86-.305L39.374 6.238V27.25c0 .69-.588 1.25-1.313 1.25z"/>
    </symbol>
    <symbol id="icon-phone" viewBox="0 0 32 32">
      <path fill="var(--color1, #fff)" d="M6.521 21.271c3.156 3.773 6.956 6.744 11.292 8.845 1.651.782 3.859 1.711 6.319 1.87a9.7 9.7 0 0 0 .451.013c1.651 0 2.977-.57 4.058-1.744.007-.007.02-.02.026-.033.385-.464.822-.882 1.28-1.326.312-.298.63-.61.935-.928 1.412-1.472 1.412-3.342-.013-4.768l-3.985-3.985c-.676-.703-1.485-1.074-2.334-1.074s-1.664.371-2.361 1.068l-2.374 2.374a12.678 12.678 0 0 0-.656-.345 8.27 8.27 0 0 1-.729-.398c-2.162-1.373-4.124-3.163-6.001-5.464-.948-1.2-1.585-2.208-2.029-3.236a39.874 39.874 0 0 0 1.77-1.731c.199-.206.404-.411.61-.617.716-.716 1.101-1.545 1.101-2.387s-.378-1.671-1.101-2.387l-1.976-1.976c-.232-.232-.451-.458-.676-.69a36.704 36.704 0 0 0-1.346-1.333C8.099.349 7.297-.002 6.448-.002c-.842 0-1.651.351-2.361 1.028l-2.48 2.48A5.094 5.094 0 0 0 .089 6.768c-.126 1.585.166 3.269.922 5.305 1.16 3.15 2.911 6.074 5.51 9.197zM1.707 6.909a3.51 3.51 0 0 1 1.054-2.254l2.467-2.467c.385-.371.809-.564 1.22-.564.404 0 .816.192 1.194.577.444.411.862.842 1.313 1.3.225.232.458.464.69.703l1.976 1.976c.411.411.623.829.623 1.24s-.212.829-.623 1.24c-.206.206-.411.418-.617.623-.617.623-1.194 1.213-1.83 1.777l-.033.033c-.55.55-.464 1.074-.332 1.472l.02.053c.511 1.227 1.22 2.394 2.327 3.786 1.989 2.453 4.085 4.356 6.392 5.822.285.186.59.332.875.477.265.133.511.259.729.398.027.013.046.026.073.04.219.113.431.166.643.166.53 0 .875-.338.988-.451l2.48-2.48c.385-.384.802-.59 1.213-.59.504 0 .915.312 1.174.59l3.998 3.992c.796.796.789 1.658-.02 2.5-.278.298-.57.584-.882.882-.464.451-.948.915-1.386 1.439-.763.822-1.671 1.207-2.845 1.207-.113 0-.232-.007-.345-.013-2.175-.139-4.197-.988-5.716-1.711-4.124-1.996-7.745-4.827-10.748-8.421-2.473-2.977-4.138-5.749-5.238-8.72-.683-1.823-.942-3.289-.835-4.622z"/>
    </symbol>
    <symbol id="icon-location" viewBox="0 0 25 32">
      <path fill="var(--color1, #fff)" d="M11.737 31.582a.946.946 0 0 0 1.57 0c2.232-3.328 5.521-7.438 7.812-11.618 1.832-3.342 2.723-6.193 2.723-8.714C23.842 5.047 18.764 0 12.522 0S1.202 5.047 1.202 11.25c0 2.522.891 5.372 2.723 8.714 2.29 4.177 5.584 8.297 7.812 11.618zm.785-29.707c5.202 0 9.433 4.206 9.433 9.375 0 2.2-.815 4.757-2.493 7.817-1.975 3.603-4.794 7.258-6.94 10.331-2.146-3.072-4.965-6.727-6.94-10.331-1.677-3.06-2.493-5.617-2.493-7.817 0-5.169 4.232-9.375 9.433-9.375z"/>
      <path fill="var(--color1, #fff)" d="M12.522 16.875c3.121 0 5.66-2.523 5.66-5.625s-2.539-5.625-5.66-5.625-5.66 2.523-5.66 5.625 2.539 5.625 5.66 5.625zm0-9.375c2.081 0 3.773 1.682 3.773 3.75S14.602 15 12.522 15c-2.081 0-3.773-1.682-3.773-3.75s1.693-3.75 3.773-3.75z"/>
    </symbol>
    <symbol id="icon-cross" viewBox="0 0 32 32">
      <path d="M31.708 25.708 22 16l9.708-9.708a1 1 0 0 0 0-1.414L27.122.292a1 1 0 0 0-1.414-.001L16 9.999 6.292.291a.998.998 0 0 0-1.414.001L.292 4.878a1 1 0 0 0 0 1.414L10 16 .292 25.708a.999.999 0 0 0 0 1.414l4.586 4.586a1 1 0 0 0 1.414 0L16 22l9.708 9.708a1 1 0 0 0 1.414 0l4.586-4.586a.999.999 0 0 0 0-1.414z"/>
    </symbol>
    <symbol id="icon-vk-unfill-1" viewBox="0 0 32 32">
<path d="M16.19 25.804c4.539 0 2.92-2.873 3.271-3.699-0.005-0.617-0.011-1.21 0.010-1.571 0.288 0.081 0.966 0.425 2.367 1.787 2.163 2.183 2.716 3.484 4.464 3.484h3.217c1.020 0 1.55-0.422 1.816-0.777 0.256-0.343 0.507-0.944 0.233-1.88-0.718-2.254-4.903-6.145-5.163-6.556 0.039-0.076 0.102-0.176 0.135-0.229h-0.003c0.826-1.092 3.979-5.816 4.443-7.706 0.001-0.003 0.003-0.007 0.003-0.010 0.251-0.863 0.021-1.422-0.217-1.739-0.358-0.473-0.928-0.712-1.698-0.712h-3.217c-1.077 0-1.894 0.543-2.307 1.532-0.691 1.758-2.634 5.374-4.090 6.654-0.045-1.813-0.014-3.197 0.009-4.226 0.047-2.007 0.199-3.959-1.884-3.959h-5.056c-1.305 0-2.553 1.425-1.201 3.116 1.182 1.482 0.425 2.309 0.68 6.421-0.993-1.065-2.761-3.942-4.010-7.62-0.35-0.995-0.881-1.916-2.375-1.916h-3.217c-1.305 0-2.084 0.711-2.084 1.902 0 2.675 5.92 17.705 15.876 17.705zM5.614 8.158c0.284 0 0.312 0 0.523 0.597 1.28 3.769 4.15 9.345 6.247 9.345 1.575 0 1.575-1.614 1.575-2.222l-0.001-4.839c-0.086-1.601-0.669-2.399-1.052-2.882l4.586 0.005c0.003 0.022-0.026 5.353 0.013 6.644 0 1.834 1.456 2.885 3.729 0.584 2.399-2.707 4.058-6.754 4.124-6.919 0.098-0.235 0.183-0.315 0.491-0.315h3.23c-0.001 0.004-0.001 0.008-0.003 0.012-0.294 1.373-3.197 5.746-4.169 7.105-0.016 0.021-0.030 0.043-0.044 0.065-0.427 0.698-0.775 1.469 0.059 2.554h0.001c0.076 0.091 0.273 0.306 0.561 0.604 0.894 0.923 3.961 4.078 4.233 5.333-0.18 0.029-0.377 0.008-3.416 0.014-0.647 0-1.153-0.967-3.084-2.915-1.736-1.689-2.863-2.379-3.889-2.379-1.992 0-1.847 1.617-1.829 3.573 0.007 2.12-0.007 1.45 0.008 1.583-0.116 0.046-0.45 0.137-1.319 0.137-8.294 0-13.695-13.165-13.903-15.681 0.072-0.007 1.061-0.003 3.328-0.004z"></path>
</symbol>
<symbol id="icon-twitter-unfill-regular-1" viewBox="0 0 32 32">
<path d="M31.548 7.026c-0.186-0.302-0.525-0.473-0.878-0.442l-1.564 0.136 1.495-3.014c0.178-0.359 0.108-0.792-0.175-1.076s-0.715-0.357-1.075-0.18l-3.957 1.938c-2.445-1.291-5.5-0.908-7.602 1.007-1.754 1.598-2.676 4.056-2.504 6.506-4.585-0.46-8.466-3.084-10.761-7.325-0.152-0.281-0.438-0.465-0.757-0.488s-0.628 0.119-0.818 0.377c-1.423 1.923-1.523 4.559-0.407 6.729-0.308-0.078-0.635-0.183-0.998-0.304-0.311-0.104-0.654-0.037-0.903 0.175s-0.37 0.541-0.316 0.864c0.442 2.677 2.003 4.734 4.468 5.952-0.321 0.112-0.649 0.203-0.982 0.272-0.331 0.069-0.599 0.311-0.701 0.634s-0.022 0.675 0.209 0.921c1.776 1.898 4.341 2.832 6.163 3.281-2.072 1.622-4.308 1.894-7.558 1.782-0.376-0.011-0.723 0.201-0.881 0.541s-0.097 0.744 0.156 1.022c1.355 1.493 6.29 3.177 11.478 3.303 0.205 0.005 0.415 0.008 0.628 0.008 3.643 0 8.457-0.781 11.913-4.237 2.616-2.615 4.252-5.627 4.863-8.949 0.493-2.684 0.181-4.833 0.032-5.865-0.011-0.076-0.023-0.156-0.032-0.227l1.463-2.358c0.187-0.301 0.187-0.681 0.002-0.983zM28.263 10.863c0.278 1.913 1.122 7.735-4.365 13.223-3.19 3.19-7.836 3.763-11.173 3.682-2.847-0.069-5.393-0.614-7.239-1.235 0.749-0.092 1.417-0.234 2.047-0.43 1.738-0.54 3.206-1.512 4.62-3.059 0.236-0.258 0.308-0.625 0.188-0.953s-0.413-0.562-0.759-0.606c-0.892-0.114-3.573-0.566-5.683-2.022 0.608-0.249 1.195-0.56 1.755-0.932 0.307-0.204 0.466-0.569 0.406-0.933s-0.329-0.658-0.686-0.752c-1.728-0.453-3.813-1.466-4.774-3.729 0.614 0.108 1.282 0.134 1.994-0.026 0.33-0.074 0.594-0.32 0.692-0.644s0.012-0.675-0.223-0.918c-1.196-1.239-1.644-3.025-1.26-4.553 1.257 1.837 2.849 3.383 4.674 4.526 2.334 1.462 5.058 2.27 7.878 2.337 0.287 0.006 0.562-0.119 0.745-0.341s0.253-0.516 0.19-0.797c-0.485-2.181 0.207-4.506 1.763-5.924 1.614-1.47 3.999-1.693 5.801-0.542 0.275 0.176 0.622 0.195 0.915 0.052l1.933-0.947-1.011 2.039c-0.15 0.303-0.125 0.664 0.065 0.943s0.517 0.434 0.854 0.405l1.363-0.119-0.628 1.012c-0.211 0.34-0.167 0.641-0.080 1.241z"></path>
</symbol>
  </defs>
</svg>
